# xmcd
#
# Track frame offsets:
#	150
#	14790
#	30402
#	45532
#	73807
#	104365
#	126035
#	145110
#	161790
#	180682
#	198985
#	222625
#	239495
#
# Disc length: 3510 seconds
#
# Revision: 1
# Processed by: cddbd v1.5PL3 Copyright (c) Steve Scherf et al.
# Submitted via: audiograbber 1.83.01
#
DISCID=c30db40d
DTITLE=Captains Crew - In Concert
DYEAR=1190
DGENRE=R&B
TTITLE0=Dust My Broom
TTITLE1=I Migth Have Been
TTITLE2=She Talks Bad
TTITLE3=I Thank You
TTITLE4=Won't You Swing
TTITLE5=Feel The Nigth
TTITLE6=Hot Stuff
TTITLE7=Brass Bed Blues
TTITLE8=Bad Case Of Loving You
TTITLE9=Soul In Chains
TTITLE10=No Place To Turn
TTITLE11=Who Do You Love
TTITLE12=Southern Jam
EXTD=
EXTT0=
EXTT1=
EXTT2=
EXTT3=
EXTT4=
EXTT5=
EXTT6=
EXTT7=
EXTT8=
EXTT9=
EXTT10=
EXTT11=
EXTT12=
PLAYORDER=
